<?xml version="1.0" standalone="no"?>
<!DOCTYPE svg PUBLIC "-//W3C//DTD SVG 20010904//EN"
 "http://www.w3.org/TR/2001/REC-SVG-20010904/DTD/svg10.dtd">
<svg version="1.0" xmlns="http://www.w3.org/2000/svg"
 width="700.000000pt" height="700.000000pt" viewBox="0 0 700.000000 700.000000"
 preserveAspectRatio="xMidYMid meet">
<metadata>
Created by potrace 1.14, written by Peter Selinger 2001-2017
</metadata>
<g transform="translate(0.000000,700.000000) scale(0.100000,-0.100000)"
fill="#000000" stroke="none">
<path d="M3299 6976 c-2 -2 -44 -7 -93 -10 -93 -7 -101 -8 -256 -32 -537 -83
-1100 -323 -1535 -653 -200 -152 -453 -393 -580 -551 -33 -41 -68 -84 -78 -94
-20 -23 -150 -204 -157 -220 -3 -6 -26 -44 -53 -84 -26 -40 -47 -75 -47 -78 0
-3 -9 -18 -20 -34 -33 -46 -156 -298 -203 -415 -54 -135 -134 -378 -152 -465
-2 -8 -12 -53 -23 -100 -11 -47 -23 -105 -27 -130 -4 -25 -9 -54 -11 -65 -2
-11 -7 -47 -10 -80 -4 -33 -8 -63 -10 -66 -24 -42 -25 -698 0 -814 2 -11 7
-49 11 -85 4 -36 9 -74 11 -85 110 -598 316 -1070 670 -1540 109 -145 153
-195 308 -350 318 -318 677 -564 1061 -729 50 -21 105 -45 124 -54 72 -31 364
-124 430 -137 9 -2 46 -10 82 -19 248 -60 461 -81 799 -80 259 1 420 16 616
55 28 5 64 12 80 15 132 23 415 111 589 181 564 229 1078 622 1457 1113 224
291 413 646 535 1005 42 124 114 400 128 495 4 25 9 54 11 65 2 11 7 40 10 65
3 25 7 56 10 70 19 116 26 534 11 719 -7 96 -30 265 -48 356 -6 28 -12 61 -15
75 -13 68 -77 298 -112 401 -66 193 -159 401 -254 568 -26 46 -48 86 -48 88 0
2 -8 16 -19 31 -10 15 -47 70 -81 122 -373 560 -927 1018 -1540 1274 -307 128
-651 219 -950 252 -30 3 -66 8 -80 10 -31 6 -536 14 -541 10z"/>
</g>
</svg>
